HIERARCHY
ROOT Hips
{
  OFFSET 50.8437 84.4586 -0.717054
  CHANNELS 6 Xposition Yposition Zposition Zrotation Xrotation Yrotation
  JOINT spine
  {
    OFFSET 0 5.95438 0.342407
    CHANNELS 3 Zrotation Xrotation Yrotation
    JOINT spine1
    {
      OFFSET 0 8.85602 0
      CHANNELS 3 Zrotation Xrotation Yrotation
      JOINT spine2
      {
        OFFSET 0 8.48567 0
        CHANNELS 3 Zrotation Xrotation Yrotation
        JOINT Neck
        {
          OFFSET 0 21.7863 1.0387
          CHANNELS 3 Zrotation Xrotation Yrotation
          JOINT Head
          {
            OFFSET 0 6.5822 0
            CHANNELS 3 Zrotation Xrotation Yrotation
            End Site
            {
              OFFSET 0 15.9326 -5.25436
            }
          }
        }
        JOINT RightShoulder
        {
          OFFSET -3.57307 9.16386 -0.497525
          CHANNELS 3 Zrotation Xrotation Yrotation
          JOINT RightArm
          {
            OFFSET 0 12.0192 0
            CHANNELS 3 Zrotation Xrotation Yrotation
            JOINT RightArmRoll
            {
              OFFSET 0 6.06755 0
              CHANNELS 3 Zrotation Xrotation Yrotation
              JOINT RightForeArm
              {
                OFFSET 0 17.6726 0
                CHANNELS 3 Zrotation Xrotation Yrotation
                JOINT RightForeArmRoll
                {
                  OFFSET 0 6.80872 0
                  CHANNELS 3 Zrotation Xrotation Yrotation
                  JOINT RightHand
                  {
                    OFFSET 0 13.6636 0
                    CHANNELS 3 Zrotation Xrotation Yrotation
                    End Site
                    {
                      OFFSET 0 0 0
                    }
                  }
                }
              }
            }
          }
        }
        JOINT LeftShoulder
        {
          OFFSET 3.57307 9.16386 -0.497525
          CHANNELS 3 Zrotation Xrotation Yrotation
          JOINT LeftArm
          {
            OFFSET 0 12.0192 0
            CHANNELS 3 Zrotation Xrotation Yrotation
            JOINT LeftArmRoll
            {
              OFFSET 0 6.06754 0
              CHANNELS 3 Zrotation Xrotation Yrotation
              JOINT LeftForeArm
              {
                OFFSET 0 17.6726 0
                CHANNELS 3 Zrotation Xrotation Yrotation
                JOINT LeftForeArmRoll
                {
                  OFFSET 0 6.80872 0
                  CHANNELS 3 Zrotation Xrotation Yrotation
                  JOINT LeftHand
                  {
                    OFFSET 0 13.6636 0
                    CHANNELS 3 Zrotation Xrotation Yrotation
                    End Site
                    {
                      OFFSET 0 0 0
                    }
                  }
                }
              }
            }
          }
        }
      }
    }
  }
  JOINT RightUpLeg
  {
    OFFSET -5.27774 -0.967797 -0.811858
    CHANNELS 3 Zrotation Xrotation Yrotation
    JOINT RightUpLegRoll
    {
      OFFSET 0 16.0214 0
      CHANNELS 3 Zrotation Xrotation Yrotation
      JOINT RightLeg
      {
        OFFSET 0 -19.8401 0
        CHANNELS 3 Zrotation Xrotation Yrotation
        JOINT RightLegRoll
        {
          OFFSET 0 19.905 0
          CHANNELS 3 Zrotation Xrotation Yrotation
          JOINT RightFoot
          {
            OFFSET 0 16.5675 0
            CHANNELS 3 Zrotation Xrotation Yrotation
            JOINT RightToeBase
            {
              OFFSET 0 13.8496 0
              CHANNELS 3 Zrotation Xrotation Yrotation
              End Site
              {
                OFFSET 0.00587034 6.70727 -0.773117
              }
            }
          }
        }
      }
    }
  }
  JOINT LeftUpLeg
  {
    OFFSET 5.27774 -0.967797 -0.811858
    CHANNELS 3 Zrotation Xrotation Yrotation
    JOINT LeftUpLegRoll
    {
      OFFSET 0 16.0215 0
      CHANNELS 3 Zrotation Xrotation Yrotation
      JOINT LeftLeg
      {
        OFFSET 0 19.84 0
        CHANNELS 3 Zrotation Xrotation Yrotation
        JOINT LeftLegRoll
        {
          OFFSET 0 20.089 0
          CHANNELS 3 Zrotation Xrotation Yrotation
          JOINT LeftFoot
          {
            OFFSET 0 16.3835 0
            CHANNELS 3 Zrotation Xrotation Yrotation
            JOINT LeftToeBase
            {
              OFFSET 0 13.8496 0
              CHANNELS 3 Zrotation Xrotation Yrotation
              End Site
              {
                OFFSET -0.0263083 6.70728 -0.773117
              }
            }
          }
        }
      }
    }
  }
}
MOTION
Frames: 7
Frame Time: 0.00208333
54.822 84.0875 -0.549519 1.53953 -8.35592 -0.192184 -0.0118476 -0.0945882 0.108493 -0.0354047 3.81389 0.204864 -0.0379058 5.45897 0.208993 -9.97702 19.1606 -1.32338 13.4207 -0.957906 -4.0042 68.2174 0.268924 -0.904695 112.826 18.0048 -13.5065 2.62396e-014 9.54166e-015 6.36111e-015 -3.64061 -0.0191568 -1.99197 -5.20816e-006 -4.41389e-006 -3.01161 8.0301 -4.95136 0.697622 -66.933 -3.00538 2.48935 -118.192 19.1278 18.0424 6.36111e-015 -3.18055e-015 3.18055e-015 3.63627 -0.0174366 1.99204 3.47883e-006 7.05246e-007 3.01159 -8.03011 -4.95138 -0.697633 176.079 0.752333 5.2747 180 7.0154e-015 178.893 176.664 14.3281 179.959 8.91502e-007 -2.57141e-006 0.234963 -20.6427 70.2155 21.6138 8.13523 25.2327 -3.4872 177.346 -1.57608 1.80896 4.54188e-006 -4.6773e-006 -1.14151 -1.81676 -11.1401 0.162368 -3.98695e-006 -1.13323e-006 -0.188767 19.6846 69.2884 -20.6506 -8.13663 25.2327 3.48779 
54.8207 84.0853 -0.539709 1.5274 -8.34252 -0.205547 -0.0113654 -0.0962868 0.108493 -0.0335395 3.81078 0.204918 -0.0360398 5.45586 0.208785 -9.99327 19.0977 -1.32651 13.4305 -0.954504 -4.00816 68.2113 0.283456 -0.896518 112.84 18.0065 -13.52 -1.59028e-015 -6.36111e-015 -1.59028e-015 -3.64061 -0.0191568 -1.99197 -5.20816e-006 -4.41389e-006 -3.01161 8.0301 -4.95136 0.697622 -66.9343 -3.01967 2.49707 -118.191 19.138 18.0453 -3.18055e-014 1.27222e-014 -9.54166e-015 3.63627 -0.0174366 1.99204 3.47883e-006 7.05246e-007 3.01159 -8.03011 -4.95138 -0.697633 176.094 0.758659 5.263 180 7.0154e-015 178.893 176.671 14.3194 179.958 8.91502e-007 -2.57141e-006 0.234963 -20.6383 70.2113 21.6092 8.13523 25.2327 -3.4872 177.359 -1.5617 1.79942 4.54188e-006 -4.6773e-006 -1.14151 -1.82228 -11.1493 0.161637 -3.98695e-006 -1.13323e-006 -0.188767 19.6852 69.2891 -20.6512 -8.13663 25.2327 3.48779 
54.8217 84.0869 -0.529903 1.51528 -8.32952 -0.218939 -0.010932 -0.0979752 0.108494 -0.0316965 3.80771 0.204964 -0.0341961 5.45278 0.208559 -10.0097 19.0354 -1.32951 13.4409 -0.951226 -4.01205 68.2052 0.298139 -0.888249 112.853 18.008 -13.5334 7.95139e-015 6.36111e-015 -0 -3.64061 -0.0191568 -1.99197 -5.20816e-006 -4.41389e-006 -3.01161 8.0301 -4.95136 0.697622 -66.9359 -3.03387 2.50477 -118.19 19.1483 18.0477 -7.95139e-015 0 1.59028e-015 3.63627 -0.0174366 1.99204 3.47883e-006 7.05246e-007 3.01159 -8.03011 -4.95138 -0.697633 176.108 0.764448 5.25139 180 7.0154e-015 178.893 176.677 14.3105 179.957 8.91502e-007 -2.57141e-006 0.234963 -20.6339 70.2071 21.6045 8.13523 25.2327 -3.4872 177.372 -1.54786 1.78981 4.54188e-006 -4.6773e-006 -1.14151 -1.82781 -11.1584 0.160882 -3.98695e-006 -1.13323e-006 -0.188767 19.6858 69.2898 -20.6519 -8.13663 25.2327 3.48779 
54.8288 84.0895 -0.529203 1.50317 -8.31679 -0.232352 -0.0105326 -0.0996565 0.108494 -0.0298691 3.80467 0.205003 -0.0323681 5.44974 0.20832 -10.0263 18.9734 -1.33243 13.4515 -0.948035 -4.01589 68.1989 0.312928 -0.879915 112.867 18.0095 -13.5467 3.26007e-014 6.36111e-015 6.36111e-015 -3.64061 -0.0191568 -1.99197 -5.20816e-006 -4.41389e-006 -3.01161 8.0301 -4.95136 0.697622 -66.9378 -3.04801 2.51245 -118.188 19.1586 18.0497 -3.10104e-014 6.36111e-015 -1.27222e-014 3.63627 -0.0174366 1.99204 3.47883e-006 7.05246e-007 3.01159 -8.03011 -4.95138 -0.697633 176.123 0.76986 5.23986 180 7.0154e-015 178.893 176.684 14.3016 179.956 8.91502e-007 -2.57141e-006 0.234963 -20.6295 70.2029 21.5999 8.13523 25.2327 -3.4872 177.385 -1.53441 1.78014 4.54188e-006 -4.6773e-006 -1.14151 -1.83336 -11.1674 0.160111 -3.98695e-006 -1.13323e-006 -0.188767 19.6865 69.2905 -20.6527 -8.13663 25.2327 3.48779 
54.8327 84.0875 -0.527111 1.49107 -8.30422 -0.245776 -0.0101526 -0.101334 0.108494 -0.0280506 3.80164 0.205038 -0.0305489 5.44671 0.208073 -10.0429 18.9116 -1.33529 13.4624 -0.944894 -4.0197 68.1925 0.327776 -0.871545 112.88 18.0109 -13.56 2.70347e-014 6.36111e-015 6.36111e-015 -3.64061 -0.0191568 -1.99197 -5.20816e-006 -4.41389e-006 -3.01161 8.0301 -4.95136 0.697622 -66.9399 -3.0621 2.52013 -118.186 19.169 18.0515 -1.59028e-014 3.18055e-015 -4.77083e-015 3.63627 -0.0174366 1.99204 3.47883e-006 7.05246e-007 3.01159 -8.03011 -4.95138 -0.697633 176.138 0.775058 5.22837 180 7.0154e-015 178.893 176.691 14.2927 179.955 8.91502e-007 -2.57141e-006 0.234963 -20.6251 70.1988 21.5952 8.13523 25.2327 -3.4872 177.399 -1.52118 1.77043 4.54188e-006 -4.6773e-006 -1.14151 -1.83892 -11.1763 0.159331 -3.98695e-006 -1.13323e-006 -0.188767 19.6873 69.2913 -20.6535 -8.13663 25.2327 3.48779 
54.8304 84.0869 -0.521314 1.47898 -8.29169 -0.259203 -0.00977759 -0.10301 0.108494 -0.0262344 3.79861 0.205072 -0.028732 5.44369 0.207824 -10.0596 18.8499 -1.33814 13.4733 -0.941765 -4.02351 68.1861 0.34264 -0.863165 112.893 18.0123 -13.5732 9.54166e-015 0 4.77083e-015 -3.64061 -0.0191568 -1.99197 -5.20816e-006 -4.41389e-006 -3.01161 8.0301 -4.95136 0.697622 -66.942 -3.07619 2.52782 -118.185 19.1794 18.0532 -1.51076e-014 6.36111e-015 -6.36111e-015 3.63627 -0.0174366 1.99204 3.47883e-006 7.05246e-007 3.01159 -8.03011 -4.95138 -0.697633 176.152 0.780202 5.21688 180 7.0154e-015 178.893 176.697 14.2838 179.954 8.91502e-007 -2.57141e-006 0.234963 -20.6208 70.1946 21.5906 8.13523 25.2327 -3.4872 177.412 -1.50801 1.76072 4.54188e-006 -4.6773e-006 -1.14151 -1.84448 -11.1853 0.158548 -3.98695e-006 -1.13323e-006 -0.188767 19.688 69.2921 -20.6543 -8.13663 25.2327 3.48779 
54.8337 84.0897 -0.509525 1.46689 -8.27908 -0.272622 -0.0093928 -0.104688 0.108495 -0.0244136 3.79558 0.205108 -0.0269107 5.44065 0.20758 -10.0762 18.788 -1.34101 13.4842 -0.938612 -4.02733 68.1798 0.357474 -0.854804 112.907 18.0138 -13.5865 2.94201e-014 1.27222e-014 7.95139e-015 -3.64061 -0.0191568 -1.99197 -5.20816e-006 -4.41389e-006 -3.01161 8.0301 -4.95136 0.697622 -66.9441 -3.0903 2.5355 -118.183 19.1898 18.055 -4.77083e-015 3.18055e-015 -1.59028e-015 3.63627 -0.0174366 1.99204 3.47883e-006 7.05246e-007 3.01159 -8.03011 -4.95138 -0.697633 176.167 0.785454 5.20538 180 7.0154e-015 178.893 176.704 14.2749 179.953 8.91502e-007 -2.57141e-006 0.234963 -20.6164 70.1904 21.5859 8.13523 25.2327 -3.4872 177.425 -1.49472 1.75103 4.54188e-006 -4.6773e-006 -1.14151 -1.85003 -11.1942 0.15777 -3.98695e-006 -1.13323e-006 -0.188767 19.6887 69.2928 -20.6551 -8.13663 25.2327 3.48779 
